<svg xmlns="http://www.w3.org/2000/svg" xmlns:xlink="http://www.w3.org/1999/xlink" version="1.1" width="256" height="256" viewBox="0 0 256 256" xml:space="preserve">

<defs>
</defs>
<g style="stroke: none; stroke-width: 0; stroke-dasharray: none; stroke-linecap: butt; stroke-linejoin: miter; stroke-miterlimit: 10; fill: none; fill-rule: nonzero; opacity: 1;" transform="translate(1.4065934065934016 1.4065934065934016) scale(2.81 2.81)" >
	<path d="M 60.831 2 c 0.457 0 0.894 0.172 1.228 0.483 l 11.037 10.266 c 0.366 0.34 0.575 0.821 0.575 1.321 v 72.127 c 0 0.995 -0.809 1.804 -1.804 1.804 H 18.132 c -0.995 0 -1.804 -0.809 -1.804 -1.804 V 3.804 C 16.328 2.809 17.137 2 18.132 2 H 60.831 M 60.831 0 H 18.132 c -2.101 0 -3.804 1.703 -3.804 3.804 v 82.393 c 0 2.101 1.703 3.804 3.804 3.804 h 53.736 c 2.101 0 3.804 -1.703 3.804 -3.804 V 14.069 c 0 -1.057 -0.439 -2.066 -1.213 -2.785 L 63.422 1.018 C 62.718 0.364 61.792 0 60.831 0 L 60.831 0 z" style="stroke: none; stroke-width: 1; stroke-dasharray: none; stroke-linecap: butt; stroke-linejoin: miter; stroke-miterlimit: 10; fill: rgb(0,0,0); fill-rule: nonzero; opacity: 1;" transform=" matrix(1 0 0 1 0 0) " stroke-linecap="round" />
	<polygon points="74.1,13.41 61.33,13.41 61.33,1.71 63.33,1.71 63.33,11.41 74.1,11.41 " style="stroke: none; stroke-width: 1; stroke-dasharray: none; stroke-linecap: butt; stroke-linejoin: miter; stroke-miterlimit: 10; fill: rgb(0,0,0); fill-rule: nonzero; opacity: 1;" transform="  matrix(1 0 0 1 0 0) "/>
	<rect x="39.7" y="62.49" rx="0" ry="0" width="10.6" height="21.98" style="stroke: none; stroke-width: 1; stroke-dasharray: none; stroke-linecap: butt; stroke-linejoin: miter; stroke-miterlimit: 10; fill: rgb(0,0,0); fill-rule: nonzero; opacity: 1;" transform=" matrix(1 0 0 1 0 0) "/>
	<rect x="20.7" y="68.08" rx="0" ry="0" width="10.6" height="16.39" style="stroke: none; stroke-width: 1; stroke-dasharray: none; stroke-linecap: butt; stroke-linejoin: miter; stroke-miterlimit: 10; fill: rgb(0,0,0); fill-rule: nonzero; opacity: 1;" transform=" matrix(1 0 0 1 0 0) "/>
	<rect x="58.7" y="53.43" rx="0" ry="0" width="10.6" height="31.04" style="stroke: none; stroke-width: 1; stroke-dasharray: none; stroke-linecap: butt; stroke-linejoin: miter; stroke-miterlimit: 10; fill: rgb(0,0,0); fill-rule: nonzero; opacity: 1;" transform=" matrix(1 0 0 1 0 0) "/>
	<path d="M 30.186 29.142 V 39.38 v 2 h 2 h 10.238 c -0.935 4.798 -5.17 8.43 -10.238 8.43 c -5.751 0 -10.43 -4.679 -10.43 -10.43 C 21.755 34.313 25.388 30.078 30.186 29.142 M 32.186 26.95 c -6.865 0 -12.43 5.565 -12.43 12.43 s 5.565 12.43 12.43 12.43 s 12.43 -5.565 12.43 -12.43 h -12.43 V 26.95 L 32.186 26.95 z" style="stroke: none; stroke-width: 1; stroke-dasharray: none; stroke-linecap: butt; stroke-linejoin: miter; stroke-miterlimit: 10; fill: rgb(0,0,0); fill-rule: nonzero; opacity: 1;" transform=" matrix(1 0 0 1 0 0) " stroke-linecap="round" />
	<path d="M 37.301 26.487 c 4.15 0.809 7.429 4.087 8.238 8.238 h -8.238 V 26.487 M 35.301 24.295 v 12.43 h 12.43 C 47.731 29.86 42.166 24.295 35.301 24.295 L 35.301 24.295 z" style="stroke: none; stroke-width: 1; stroke-dasharray: none; stroke-linecap: butt; stroke-linejoin: miter; stroke-miterlimit: 10; fill: rgb(0,0,0); fill-rule: nonzero; opacity: 1;" transform=" matrix(1 0 0 1 0 0) " stroke-linecap="round" />
	<rect x="52.19" y="36.05" rx="0" ry="0" width="17.12" height="2" style="stroke: none; stroke-width: 1; stroke-dasharray: none; stroke-linecap: butt; stroke-linejoin: miter; stroke-miterlimit: 10; fill: rgb(0,0,0); fill-rule: nonzero; opacity: 1;" transform=" matrix(1 0 0 1 0 0) "/>
	<rect x="52.19" y="30.05" rx="0" ry="0" width="17.12" height="2" style="stroke: none; stroke-width: 1; stroke-dasharray: none; stroke-linecap: butt; stroke-linejoin: miter; stroke-miterlimit: 10; fill: rgb(0,0,0); fill-rule: nonzero; opacity: 1;" transform=" matrix(1 0 0 1 0 0) "/>
	<rect x="60.74" y="24.05" rx="0" ry="0" width="8.56" height="2" style="stroke: none; stroke-width: 1; stroke-dasharray: none; stroke-linecap: butt; stroke-linejoin: miter; stroke-miterlimit: 10; fill: rgb(0,0,0); fill-rule: nonzero; opacity: 1;" transform=" matrix(1 0 0 1 0 0) "/>
	<rect x="52.19" y="42.05" rx="0" ry="0" width="17.12" height="2" style="stroke: none; stroke-width: 1; stroke-dasharray: none; stroke-linecap: butt; stroke-linejoin: miter; stroke-miterlimit: 10; fill: rgb(0,0,0); fill-rule: nonzero; opacity: 1;" transform=" matrix(1 0 0 1 0 0) "/>
</g>
</svg>